<svg xmlns="http://www.w3.org/2000/svg" version="1.1" xmlns:xlink="http://www.w3.org/1999/xlink" xmlns:svgjs="http://svgjs.dev/svgjs" width="1500" height="1500" viewBox="0 0 1500 1500"><rect width="1500" height="1500" fill="none"></rect><g transform="matrix(0.6666666666666666,0,0,0.6666666666666666,250,187.66666666666674)"><svg viewBox="0 0 320 360" data-background-color="none" preserveAspectRatio="xMidYMid meet" height="1687" width="1500" xmlns="http://www.w3.org/2000/svg" xmlns:xlink="http://www.w3.org/1999/xlink"><g id="tight-bounds" transform="matrix(1,0,0,1,0,0)"><svg viewBox="0 0 320 360" height="360" width="320"><g><svg></svg></g><g><svg viewBox="0 0 320 360" height="360" width="320"><g><path d="M320 141.95l-19.957-19.957v-28.224l-53.812-53.812h-28.223l-19.958-19.957h-76.1l-19.957 19.957h-28.224l-53.812 53.812v28.224l-19.957 19.957v76.104l19.957 19.958v28.223l53.816 53.808h28.224l19.957 19.957h76.104l19.958-19.957h28.223l53.812-53.812v-28.224l19.949-19.957zM244.374 44.437l51.189 51.189v21.887l-73.076-73.076zM295.563 123.849v112.306l-79.408 79.408h-112.306l-79.412-79.412v-112.302l79.412-79.412h112.306zM123.807 24.48h72.39l15.478 15.477h-103.346zM24.437 95.626l51.189-51.189h21.887l-73.076 73.076zM4.484 216.197v-72.394l15.477-15.478v103.342zM75.626 315.563l-51.189-51.189v-21.887l73.076 73.076zM196.197 335.52h-72.39l-15.478-15.477h103.342zM295.563 264.374l-51.189 51.189h-21.887l73.076-73.076zM315.52 216.197l-15.477 15.478v-103.346l15.477 15.478z" fill="#000000" fill-rule="nonzero" stroke="none" stroke-width="1" stroke-linecap="butt" stroke-linejoin="miter" stroke-miterlimit="10" stroke-dasharray="" stroke-dashoffset="0" font-family="none" font-weight="none" font-size="none" text-anchor="none" style="mix-blend-mode: normal" data-fill-palette-color="tertiary"></path></g><g transform="matrix(1,0,0,1,56,162.30838679021144)"><svg viewBox="0 0 208 35.383226419577106" height="35.383226419577106" width="208"><g><svg viewBox="0 0 208 35.383226419577106" height="35.383226419577106" width="208"><g><svg viewBox="0 0 208 35.383226419577106" height="35.383226419577106" width="208"><g id="textblocktransform"><svg viewBox="0 0 208 35.383226419577106" height="35.383226419577106" width="208" id="textblock"><g><svg viewBox="0 0 208 35.383226419577106" height="35.383226419577106" width="208"><g transform="matrix(1,0,0,1,0,0)"><svg width="208" viewBox="0 -35.8 210.44 35.8" height="35.383226419577106" data-palette-color="#000000"><path d="M25.25-2.15L31.5-2.15 31.5 0 0 0 0-2.15 6.4-2.15Q4-3.4 2-5.25L2-5.25 5.7-9.7Q11-5.1 16.7-5.1L16.7-5.1Q19.55-5.1 21.23-6.33 22.9-7.55 22.9-9.58 22.9-11.6 21.33-12.73 19.75-13.85 15.9-14.78 12.05-15.7 10.05-16.48 8.05-17.25 6.5-18.5L6.5-18.5Q3.4-20.85 3.4-25.7 3.4-30.55 6.93-33.18 10.45-35.8 15.65-35.8L15.65-35.8Q19-35.8 22.3-34.7 25.6-33.6 28-31.6L28-31.6 24.85-27.15Q23.3-28.55 20.65-29.45 18-30.35 15.43-30.35 12.85-30.35 11.2-29.3 9.55-28.25 9.55-26.13 9.55-24 11.2-22.88 12.85-21.75 18.23-20.45 23.6-19.15 26.33-16.8 29.05-14.45 29.05-10.2L29.05-10.2Q29.05-5.05 25.25-2.15L25.25-2.15ZM31.5-2.15L36.35-2.15 36.35-34.95 42.25-34.95 42.25-17.9 58.25-34.95 65.75-34.95 51.7-19.65 64.4-2.1 64.4-2.15 69.25-2.15 69.25 0 58.95 0 47.35-15.3 42.25-9.8 42.25 0 31.5 0 31.5-2.15ZM66.7-2.15L79.3-2.15 79.3-13.8 66.3-34.95 72.75-34.95 82.3-19.05 91.85-34.95 98.3-34.95 85.3-13.8 85.3-2.15 97.9-2.15 97.9 0 66.7 0 66.7-2.15ZM136.74 0L136.74-2.15 131.89-2.15 131.89-34.95 125.99-34.95 125.99-19.8 108.64-19.8 108.64-34.95 102.74-34.95 102.74 0 108.64 0 108.64-14.3 125.99-14.3 125.99 0 136.74 0ZM97.89-2.15L102.74-2.15 102.74 0 97.89 0 97.89-2.15ZM164.74-2.15L175.14-2.15 175.14 0 136.74 0 136.74-2.15 147.09-2.15Q141.14-6.3 141.14-15.3L141.14-15.3 141.14-34.95 147.04-34.95 147.04-15.55Q147.04-10.75 149.44-7.95 151.84-5.15 155.94-5.15 160.04-5.15 162.44-7.95 164.84-10.75 164.84-15.55L164.84-15.55 164.84-34.95 170.74-34.95 170.74-15.3Q170.74-6.25 164.74-2.15L164.74-2.15ZM203.99-2.15L210.44-2.15 210.44 0 175.14 0 175.14-2.15 179.99-2.15 179.99-34.95 193.59-34.95Q197.14-34.95 199.71-34.1 202.29-33.25 203.54-31.8L203.54-31.8Q205.94-29.1 205.94-25.7L205.94-25.7Q205.94-21.6 203.34-19.6L203.34-19.6Q202.39-18.9 202.04-18.73 201.69-18.55 200.79-18.15L200.79-18.15Q204.04-17.45 205.96-15.23 207.89-13 207.89-9.7L207.89-9.7Q207.89-4.75 203.99-2.15L203.99-2.15ZM185.89-15L185.89-5.45 195.14-5.45Q198.39-5.45 200.11-6.48 201.84-7.5 201.84-10.35L201.84-10.35Q201.84-15 194.39-15L194.39-15 185.89-15ZM185.89-29.5L185.89-20.45 193.39-20.45Q199.79-20.45 199.79-24.8L199.79-24.8Q199.79-27.3 198.24-28.4 196.69-29.5 193.44-29.5L193.44-29.5 185.89-29.5Z" opacity="1" transform="matrix(1,0,0,1,0,0)" fill="#000000" class="wordmark-text-0" data-fill-palette-color="primary" id="text-0"></path></svg></g></svg></g></svg></g></svg></g></svg></g></svg></g></svg></g><defs></defs></svg><rect width="320" height="360" fill="none" stroke="none" visibility="hidden"></rect></g></svg></g></svg>
